<?xml version="1.0" encoding="UTF-8"?>
<svg width="1400" height="540" viewBox="0 0 1400 540" xmlns="http://www.w3.org/2000/svg">
<defs>
  <marker id="arr" viewBox="0 0 10 10" refX="9" refY="5" markerWidth="7" markerHeight="7" orient="auto-start-reverse">
    <path d="M1 1L9 5L1 9" fill="none" stroke="#111" stroke-width="1.5" stroke-linecap="round" stroke-linejoin="round"/>
  </marker>
</defs>
<rect width="1400" height="540" fill="white"/>
<style>
  text { font-family: Arial, Helvetica, sans-serif; fill: #111; }
  .ll { font-size:12px; font-weight:bold; }
  .tl { font-size:11px; }
  .ts { font-size:10px; fill:#444; }
  .gl { font-size:10px; fill:#333; }
  .ttl { font-size:12px; font-weight:bold; }
</style>

<!-- Pool border -->
<rect x="30" y="15" width="1355" height="515" rx="4" fill="none" stroke="#111" stroke-width="2"/>
<rect x="30" y="15" width="32" height="515" fill="#ddd" stroke="#111" stroke-width="1"/>
<text class="ll" x="46" y="273" text-anchor="middle" transform="rotate(-90,46,273)">BPMN 4: Pediatric &amp; Specialist Care – Vaccination, Growth, Neonatal &amp; Screening</text>

<!-- Nurse lane y=15..140 -->
<rect x="62" y="15" width="1323" height="125" fill="none" stroke="#111" stroke-width="1"/>
<rect x="62" y="15" width="52" height="125" fill="#f0f0f0" stroke="#111" stroke-width="0.8"/>
<text class="ll" x="88" y="78" text-anchor="middle" transform="rotate(-90,88,78)">Nurse</text>

<!-- System lane y=140..265 -->
<rect x="62" y="140" width="1323" height="125" fill="none" stroke="#111" stroke-width="1"/>
<rect x="62" y="140" width="52" height="125" fill="#f0f0f0" stroke="#111" stroke-width="0.8"/>
<rect x="62" y="140" width="52" height="125" fill="#f0f0f0" stroke="#111" stroke-width="0.8"/>
<text class="ll" x="88" y="203" text-anchor="middle" transform="rotate(-90,88,203)">System</text>

<!-- Doctor lane y=265..380 -->
<rect x="62" y="265" width="1323" height="115" fill="none" stroke="#111" stroke-width="1"/>
<rect x="62" y="265" width="52" height="115" fill="#f0f0f0" stroke="#111" stroke-width="0.8"/>
<text class="ll" x="88" y="323" text-anchor="middle" transform="rotate(-90,88,323)">Doctor</text>

<!-- Patient/Parent lane y=380..530 -->
<rect x="62" y="380" width="1323" height="150" fill="none" stroke="#111" stroke-width="1"/>
<rect x="62" y="380" width="52" height="150" fill="#f0f0f0" stroke="#111" stroke-width="0.8"/>
<text class="ll" x="88" y="455" text-anchor="middle" transform="rotate(-90,88,455)">Patient / Parent</text>

<!-- ===== NURSE LANE ===== -->
<circle cx="135" cy="78" r="14" fill="white" stroke="#111" stroke-width="2"/>
<text class="tl" x="135" y="103" text-anchor="middle">Open Patient</text>

<rect x="162" y="50" width="115" height="56" rx="4" fill="white" stroke="#111" stroke-width="1.5"/>
<text class="tl" x="220" y="70" text-anchor="middle">View Vaccination</text>
<text class="tl" x="220" y="83" text-anchor="middle">Calendar</text>
<text class="ts" x="220" y="96" text-anchor="middle">US-07</text>

<rect x="297" y="50" width="115" height="56" rx="4" fill="white" stroke="#111" stroke-width="1.5"/>
<text class="tl" x="355" y="70" text-anchor="middle">Administer Vaccine</text>
<text class="tl" x="355" y="83" text-anchor="middle">&amp; Record Batch</text>

<rect x="432" y="50" width="115" height="56" rx="4" fill="white" stroke="#111" stroke-width="1.5"/>
<text class="tl" x="490" y="67" text-anchor="middle">Record Growth</text>
<text class="tl" x="490" y="80" text-anchor="middle">Measurements</text>
<text class="ts" x="490" y="93" text-anchor="middle">US-08</text>

<rect x="567" y="50" width="115" height="56" rx="4" fill="white" stroke="#111" stroke-width="1.5"/>
<text class="tl" x="625" y="67" text-anchor="middle">Create Neonatal</text>
<text class="tl" x="625" y="80" text-anchor="middle">Record + APGAR</text>
<text class="ts" x="625" y="93" text-anchor="middle">US-16</text>

<rect x="702" y="50" width="115" height="56" rx="4" fill="white" stroke="#111" stroke-width="1.5"/>
<text class="tl" x="760" y="67" text-anchor="middle">Schedule Pap</text>
<text class="tl" x="760" y="80" text-anchor="middle">Test/Mammogram</text>
<text class="ts" x="760" y="93" text-anchor="middle">US-17</text>

<rect x="837" y="50" width="120" height="56" rx="4" fill="white" stroke="#111" stroke-width="1.5"/>
<text class="tl" x="897" y="67" text-anchor="middle">Record Screening</text>
<text class="tl" x="897" y="80" text-anchor="middle">Result &amp; Next Date</text>

<circle cx="1020" cy="78" r="14" fill="white" stroke="#111" stroke-width="4"/>
<text class="tl" x="1020" y="103" text-anchor="middle">Records Updated</text>

<!-- ===== SYSTEM LANE ===== -->
<rect x="162" y="163" width="115" height="52" rx="4" fill="white" stroke="#111" stroke-width="1.5"/>
<text class="tl" x="220" y="181" text-anchor="middle">Show Due Vaccines</text>
<text class="tl" x="220" y="194" text-anchor="middle">from Calendar</text>

<rect x="297" y="163" width="115" height="52" rx="4" fill="white" stroke="#111" stroke-width="1.5"/>
<text class="tl" x="355" y="180" text-anchor="middle">Mark Administered</text>
<text class="tl" x="355" y="193" text-anchor="middle">&amp; Sched. Booster</text>

<rect x="432" y="163" width="115" height="52" rx="4" fill="white" stroke="#111" stroke-width="1.5"/>
<text class="tl" x="490" y="180" text-anchor="middle">Calculate BMI &amp;</text>
<text class="tl" x="490" y="193" text-anchor="middle">Plot WHO Chart</text>
<text class="ts" x="490" y="206" text-anchor="middle">NFR-21</text>

<rect x="567" y="163" width="115" height="52" rx="4" fill="white" stroke="#111" stroke-width="1.5"/>
<text class="tl" x="625" y="180" text-anchor="middle">Create Patient ID</text>
<text class="tl" x="625" y="193" text-anchor="middle">&amp; Vax Calendar</text>

<rect x="702" y="163" width="115" height="52" rx="4" fill="white" stroke="#111" stroke-width="1.5"/>
<text class="tl" x="760" y="180" text-anchor="middle">Check Eligibility</text>
<text class="tl" x="760" y="193" text-anchor="middle">&amp; Overdue</text>
<text class="ts" x="760" y="206" text-anchor="middle">NFR-08</text>

<rect x="837" y="163" width="120" height="52" rx="4" fill="white" stroke="#111" stroke-width="1.5"/>
<text class="tl" x="897" y="180" text-anchor="middle">Schedule Next</text>
<text class="tl" x="897" y="193" text-anchor="middle">Screening &amp; Audit</text>

<!-- ===== DOCTOR LANE ===== -->
<rect x="432" y="285" width="115" height="52" rx="4" fill="white" stroke="#111" stroke-width="1.5"/>
<text class="tl" x="490" y="302" text-anchor="middle">Review Growth</text>
<text class="tl" x="490" y="315" text-anchor="middle">Chart &amp; Flag Dev.</text>

<rect x="567" y="285" width="115" height="52" rx="4" fill="white" stroke="#111" stroke-width="1.5"/>
<text class="tl" x="625" y="302" text-anchor="middle">Review Neonatal</text>
<text class="tl" x="625" y="315" text-anchor="middle">Record &amp; Confirm</text>

<rect x="702" y="285" width="115" height="52" rx="4" fill="white" stroke="#111" stroke-width="1.5"/>
<text class="tl" x="760" y="302" text-anchor="middle">Flag Abnormal</text>
<text class="tl" x="760" y="315" text-anchor="middle">&amp; Plan Follow-Up</text>

<!-- ===== PATIENT/PARENT LANE ===== -->
<rect x="297" y="402" width="115" height="52" rx="4" fill="white" stroke="#111" stroke-width="1.5"/>
<text class="tl" x="355" y="419" text-anchor="middle">Receive Booster</text>
<text class="tl" x="355" y="432" text-anchor="middle">Reminder Email</text>

<rect x="702" y="402" width="115" height="52" rx="4" fill="white" stroke="#111" stroke-width="1.5"/>
<text class="tl" x="760" y="419" text-anchor="middle">Receive SMS</text>
<text class="tl" x="760" y="432" text-anchor="middle">Screening Reminder</text>

<!-- ===== FLOWS ===== -->
<line x1="149" y1="78" x2="162" y2="78" stroke="#111" stroke-width="1.5" marker-end="url(#arr)"/>
<line x1="220" y1="106" x2="220" y2="163" stroke="#111" stroke-width="1.5" marker-end="url(#arr)"/>
<line x1="277" y1="78" x2="297" y2="78" stroke="#111" stroke-width="1.5" marker-end="url(#arr)"/>
<line x1="355" y1="106" x2="355" y2="163" stroke="#111" stroke-width="1.5" marker-end="url(#arr)"/>
<!-- Mark Administered → Booster Email (dashed) -->
<path d="M355 215 L355 402" fill="none" stroke="#111" stroke-width="1.5" stroke-dasharray="6,3" marker-end="url(#arr)"/>

<line x1="412" y1="78" x2="432" y2="78" stroke="#111" stroke-width="1.5" marker-end="url(#arr)"/>
<line x1="490" y1="106" x2="490" y2="163" stroke="#111" stroke-width="1.5" marker-end="url(#arr)"/>
<line x1="490" y1="215" x2="490" y2="285" stroke="#111" stroke-width="1.5" marker-end="url(#arr)"/>

<line x1="547" y1="78" x2="567" y2="78" stroke="#111" stroke-width="1.5" marker-end="url(#arr)"/>
<line x1="625" y1="106" x2="625" y2="163" stroke="#111" stroke-width="1.5" marker-end="url(#arr)"/>
<line x1="625" y1="215" x2="625" y2="285" stroke="#111" stroke-width="1.5" marker-end="url(#arr)"/>

<line x1="682" y1="78" x2="702" y2="78" stroke="#111" stroke-width="1.5" marker-end="url(#arr)"/>
<line x1="760" y1="106" x2="760" y2="163" stroke="#111" stroke-width="1.5" marker-end="url(#arr)"/>
<line x1="760" y1="215" x2="760" y2="285" stroke="#111" stroke-width="1.5" marker-end="url(#arr)"/>
<!-- Flag Abnormal → SMS Reminder (dashed) -->
<path d="M760 337 L760 402" fill="none" stroke="#111" stroke-width="1.5" stroke-dasharray="6,3" marker-end="url(#arr)"/>

<line x1="817" y1="78" x2="837" y2="78" stroke="#111" stroke-width="1.5" marker-end="url(#arr)"/>
<line x1="897" y1="106" x2="897" y2="163" stroke="#111" stroke-width="1.5" marker-end="url(#arr)"/>
<line x1="957" y1="78" x2="1006" y2="78" stroke="#111" stroke-width="1.5" marker-end="url(#arr)"/>

<text class="ttl" x="700" y="530" text-anchor="middle">BPMN 4: Pediatric &amp; Specialist Care – Vaccination, Growth, Neonatal &amp; Screening (US-07 · US-08 · US-16 · US-17)</text>
</svg>
